<svg id="visual" viewBox="0 0 900 600" width="900" height="600" xmlns="http://www.w3.org/2000/svg" xmlns:xlink="http://www.w3.org/1999/xlink" version="1.1"><rect x="0" y="0" width="900" height="600" fill="#002233"></rect><path d="M0 112L12.5 120.3C25 128.7 50 145.3 75 154.5C100 163.7 125 165.3 150 158.7C175 152 200 137 225 138.3C250 139.7 275 157.3 300 162.8C325 168.3 350 161.7 375 153.5C400 145.3 425 135.7 450 140.8C475 146 500 166 525 168.5C550 171 575 156 600 146.8C625 137.7 650 134.3 675 139.5C700 144.7 725 158.3 750 164C775 169.7 800 167.3 825 166.2C850 165 875 165 887.5 165L900 165L900 0L887.5 0C875 0 850 0 825 0C800 0 775 0 750 0C725 0 700 0 675 0C650 0 625 0 600 0C575 0 550 0 525 0C500 0 475 0 450 0C425 0 400 0 375 0C350 0 325 0 300 0C275 0 250 0 225 0C200 0 175 0 150 0C125 0 100 0 75 0C50 0 25 0 12.5 0L0 0Z" fill="#0066FF" stroke-linecap="round" stroke-linejoin="miter"></path></svg>